<svg width="146" height="150" viewBox="0 0 146 150" fill="none" xmlns="http://www.w3.org/2000/svg">
<path d="M3.94998 77.95C0.309983 63.29 0.139983 47.05 2.86998 32.19C5.59998 17.34 16.59 2.87 31.6 1.17C41.88 -2.68221e-06 52.03 4.95 59.85 11.73C67.67 18.51 73.69 27.07 80.4 34.95C87.11 42.83 94.89 50.29 104.65 53.74C110.87 55.94 117.62 56.4 123.76 58.84C139.26 65.01 147.61 83.61 144.78 100.06C141.95 116.5 129.73 130.28 115.03 138.17C109.12 141.34 102.68 143.73 95.98 144.19C89.36 144.65 82.67 143.22 76.09 144.07C67.91 145.12 60.3 150.07 52.06 149.61C26.66 148.22 7.40998 91.75 3.96998 77.94L3.94998 77.95Z" fill="#3BD4AE"/>
<path fill-rule="evenodd" clip-rule="evenodd" d="M81.9397 95.12H120.975V72.735H81.9397V49.61H130.41V19.27H42.1647V141H81.9397V95.12ZM77.9397 137V91.12H116.975V76.735H77.9397V45.61H126.41V23.27H46.1647V137H77.9397Z" fill="#FFC844"/>
</svg>
