<svg width="227" height="76" viewBox="0 0 227 76" fill="none" xmlns="http://www.w3.org/2000/svg">
<path d="M0 28.2529H8.88L15.21 51.6629L22.11 28.7529H29.75L36.62 51.6629L42.98 28.2529H51.86L42.38 60.4129H31.69L25.93 40.9129L20.17 60.4129H9.48L0 28.2529Z" fill="#1226AA"/>
<path d="M51.68 44.293C51.71 34.483 58.68 27.573 68.23 27.573C77.07 27.573 83.81 33.503 83.81 43.253C83.81 44.423 83.71 45.633 83.51 46.903H60.26C60.9 50.693 64.75 53.333 68.84 53.333C72.02 53.333 74.77 51.863 76.85 48.813L82.95 53.373C79.94 58.393 74.31 61.113 68.65 61.113C58.33 61.113 51.7 53.673 51.7 44.293H51.68ZM75.8 41.143C75.36 37.563 72.42 34.813 68.33 34.813C64.24 34.813 60.86 37.493 60.39 41.143H75.8Z" fill="#1226AA"/>
<path d="M146.16 12.9729C149.07 12.9729 151.12 14.9829 151.12 17.9329C151.12 20.8829 149.08 22.8529 146.16 22.8529C143.24 22.8529 141.24 20.8429 141.24 17.9329C141.24 15.0229 143.25 12.9729 146.16 12.9729ZM141.91 60.4029V28.2529H150.52V60.4129H141.91V60.4029Z" fill="#1226AA"/>
<path d="M156.77 60.413V28.253H164.94L165.11 31.973C166.78 29.733 170.24 27.583 175.03 27.583C182.47 27.583 187.73 32.473 187.73 40.213V60.413H179.15V42.423C179.15 37.963 176.27 35.553 172.48 35.553C168.69 35.553 165.34 37.963 165.34 42.423V60.413H156.76H156.77Z" fill="#1226AA"/>
<path d="M207.33 27.583C212.42 27.583 215.67 29.293 217.78 31.673L217.95 28.253H226.39V60.413H217.95L217.78 56.993C215.64 59.473 212.05 61.083 207.33 61.083C198.22 61.083 191.75 54.013 191.75 44.303C191.75 34.593 198.22 27.583 207.33 27.583ZM200.4 44.263C200.4 49.353 203.98 53.373 209.11 53.373C214.24 53.373 217.85 49.353 217.85 44.263C217.85 39.173 214.17 35.283 209.11 35.283C204.05 35.283 200.4 39.073 200.4 44.263Z" fill="#1226AA"/>
<path d="M80.15 63.733C95.39 57.073 104.8 29.993 103.55 14.283C103.44 13.013 103.27 11.773 102.97 10.703C102.53 9.30296 102.18 8.33296 101.23 7.73296C100.99 7.59296 100.56 7.52296 100.22 7.56296C99.86 7.65296 99.65 7.81296 99.26 8.17296C97.83 9.63296 96.87 12.193 96.28 14.353C95.58 16.903 95.19 19.633 94.95 22.393C94.31 30.583 95 39.173 97.91 46.883C100.32 53.273 104.92 59.203 112.15 59.633C117.62 60.283 121.29 54.793 123.63 50.363C127.26 43.073 129.18 34.583 129.21 26.463C129.21 24.173 129.01 21.383 128.15 19.383C127.78 18.593 127.4 17.843 126.56 17.853C126.18 17.933 125.94 18.193 125.57 18.623C124.57 19.933 124.04 21.523 123.57 23.253C122.94 25.733 122.63 28.443 122.49 31.163C122.11 39.283 123.59 47.743 127.37 54.943C129.8 59.523 133.31 63.413 137.97 65.643C140.22 66.723 142.69 67.383 145.27 67.663L144.6 75.183C141.25 74.943 137.85 74.133 134.7 72.703C122.2 67.083 116.11 53.233 114.61 40.343C113.88 33.863 113.97 27.403 115.93 21.043C117.1 17.423 118.88 13.573 122.41 11.443C125.84 9.34296 130.64 10.273 133.24 13.263C135.31 15.513 136.32 18.553 136.85 21.263C139.42 34.553 132.66 58.613 120.16 65.433C118.27 66.473 115.95 67.163 113.67 67.213C112.99 67.213 112.31 67.213 111.63 67.163C107.14 66.903 102.69 65.133 99.26 62.243C88.27 53.003 85.53 35.173 86.83 21.613C87.58 15.263 89.23 7.42296 94.05 2.67296C96.79 -0.0170426 100.85 -0.777043 104.42 0.852957C107.53 2.24296 109.49 5.24296 110.53 8.27296C112.21 13.143 112.09 18.343 111.57 23.213C110.03 35.743 105.65 47.933 98.24 58.203C94.31 63.503 89.32 68.263 82.96 70.743L80.17 63.733H80.15Z" fill="#B4008D"/>
</svg>
