<svg width="148" height="138" viewBox="0 0 148 138" fill="none" xmlns="http://www.w3.org/2000/svg">
<path d="M39.81 136.77C19.82 135.55 10.45 126.35 3.75001 110.34C-4.53999 90.53 7.31001 70.7 20.57 58.53C28.43 51.32 45.35 45.63 49.98 42.97C54.57 40.34 51.11 42.37 51.11 42.37C71.24 32.25 92.48 32.58 107.98 15.72C114.58 8.54999 119.72 -5.55001 131.67 4.45999C141.1 12.36 147.52 27.38 147.37 41.36C147.11 64.83 131.78 86.96 116.28 105.9C94.51 132.52 73.17 138.8 39.8 136.76L39.81 136.77Z" fill="#1226AA"/>
<path fill-rule="evenodd" clip-rule="evenodd" d="M34.6378 114.096C44.7173 124.028 59.8399 129.85 79.9766 129.85C98.4428 129.85 112.121 124.947 121.124 117.099C130.072 109.298 134.807 98.2408 134.807 85.01C134.807 84.3996 134.806 83.6875 134.794 82.905H109.506C109.48 90.5528 106.863 96.8602 101.934 101.213C97.0509 105.524 90.3641 107.51 82.9366 107.51C74.2849 107.51 66.4681 104.457 60.861 98.1111C55.2987 91.8162 52.2966 82.7229 52.2966 71.32C52.2966 60.1193 55.1964 50.9602 60.6764 44.5354C66.2147 38.0423 74.0388 34.76 82.9366 34.76C90.0166 34.76 96.6555 36.7113 101.576 41.091C106.567 45.5344 109.322 52.0627 109.322 60.22V60.2354C109.322 60.3063 109.322 60.3864 109.321 60.475H134.604C134.621 59.29 134.622 58.0304 134.622 56.89C134.622 44.1312 129.985 33.1538 121.086 25.3205C112.144 17.4493 98.5122 12.42 79.9766 12.42C60.941 12.42 45.7876 17.9253 35.4191 27.7838C25.0788 37.6156 19.0416 52.2092 19.0416 71.32C19.0416 89.6602 24.5627 104.169 34.6378 114.096ZM138.437 64.475C138.622 62.625 138.622 59.295 138.622 56.89C138.622 29.325 118.457 8.41998 79.9766 8.41998C40.3866 8.41998 15.0416 31.36 15.0416 71.32C15.0416 109.615 38.1666 133.85 79.9766 133.85C118.272 133.85 138.807 113.5 138.807 85.01C138.807 83.53 138.807 81.31 138.622 78.905H105.322C105.507 81.125 105.507 82.235 105.507 82.79C105.507 82.8284 105.507 82.8667 105.506 82.905C105.455 96.3359 96.4033 103.51 82.9366 103.51C67.5816 103.51 56.2966 92.78 56.2966 71.32C56.2966 50.23 67.2116 38.76 82.9366 38.76C95.7016 38.76 105.322 45.79 105.322 60.22C105.322 60.2956 105.322 60.3809 105.321 60.475C105.32 61.3022 105.303 62.814 105.137 64.475H138.437Z" fill="#FFC844"/>
</svg>
