<svg width="178" height="137" viewBox="0 0 178 137" fill="none" xmlns="http://www.w3.org/2000/svg">
<path d="M18.58 9.26999C48.08 -19.88 87.3 37.55 131.14 35.17C218.59 30.41 174.64 180.62 69.18 123.74C25.58 100.23 -29.35 56.62 18.58 9.26999Z" fill="#F93549"/>
<path fill-rule="evenodd" clip-rule="evenodd" d="M90.8225 93.96H109.878C144.288 93.96 158.903 78.235 158.903 50.67C158.903 20.885 140.588 6.27002 106.363 6.27002H51.0475V128H90.8225V93.96ZM86.8225 124V89.96H109.878C126.552 89.96 137.647 86.1422 144.574 79.7189C151.442 73.3503 154.903 63.7725 154.903 50.67C154.903 36.6336 150.624 26.8018 142.907 20.3742C135.055 13.8346 122.997 10.27 106.363 10.27H55.0475V124H86.8225ZM86.8225 74.835V32.61H106.178C112.485 32.61 117.989 34.2707 121.91 38.1299C125.842 41.9996 127.568 47.475 127.568 53.815C127.568 60.3959 126.001 65.8545 122.28 69.6388C118.546 73.4374 113.344 74.835 107.658 74.835H86.8225ZM107.658 70.835C117.833 70.835 123.568 65.84 123.568 53.815C123.568 42.53 117.463 36.61 106.178 36.61H90.8225V70.835H107.658Z" fill="#FFC844"/>
</svg>
