<svg width="65" height="110" viewBox="0 0 65 110" fill="none" xmlns="http://www.w3.org/2000/svg">
<path d="M32.47 60.38C48.5912 60.38 61.66 47.3112 61.66 31.19C61.66 15.0688 48.5912 2 32.47 2C16.3488 2 3.28 15.0688 3.28 31.19C3.28 47.3112 16.3488 60.38 32.47 60.38Z" stroke="#1226AA" stroke-width="3" stroke-miterlimit="10"/>
<path d="M11.75 52.1101L2.75 108.39C2.75 108.39 36.63 106.93 36.63 86.6301C36.63 76.0701 28.3 75.7601 28.3 86.6301C28.3 106.4 62.18 108.39 62.18 108.39L53.18 62.2601" stroke="#1226AA" stroke-width="3" stroke-miterlimit="10"/>
<path d="M41.65 43.74C36.63 42.56 33.26 38.5 33.26 38.5C32.79 38.16 32.14 38.16 31.67 38.5L25.46 43.01C24.4 43.78 22.97 42.74 23.38 41.5L25.75 34.2C25.93 33.64 25.73 33.03 25.26 32.69L19.05 28.18C17.99 27.41 18.53 25.73 19.84 25.73H27.51C28.1 25.73 28.62 25.35 28.8 24.8L31.17 17.5C31.57 16.25 33.34 16.25 33.74 17.5L36.11 24.8C36.29 25.36 36.81 25.73 37.4 25.73H45.07C46.38 25.73 46.92 27.41 45.86 28.18L39.65 32.69C39.18 33.03 38.98 33.64 39.16 34.2C39.16 34.2 39.35 37.07 40.13 38.21" stroke="#1226AA" stroke-width="3" stroke-miterlimit="10"/>
</svg>
