<svg width="279" height="50" viewBox="0 0 279 50" fill="none" xmlns="http://www.w3.org/2000/svg">
<path d="M0 18.7954H5.89918L10.1088 34.3643L14.7002 19.1295H19.7785L24.3413 34.3643L28.57 18.7954H34.4691L28.169 40.1871H21.0671L17.2393 27.2242L13.4116 40.1871H6.30009L0 18.7954Z" fill="white"/>
<path d="M34.3641 29.4673C34.3832 22.9381 39.0223 18.3467 45.3702 18.3467C51.2502 18.3467 55.7271 22.289 55.7271 28.7705C55.7271 29.5532 55.6603 30.355 55.5267 31.195H40.0628C40.4828 33.7151 43.0506 35.4715 45.7615 35.4715C47.8807 35.4715 49.7039 34.4883 51.088 32.4646L55.1449 35.4906C53.1403 38.8315 49.3984 40.6356 45.6279 40.6356C38.7646 40.6356 34.3546 35.691 34.3546 29.4482L34.3641 29.4673ZM50.4007 27.3768C50.1143 24.9904 48.1479 23.1672 45.437 23.1672C42.726 23.1672 40.4733 24.9522 40.1583 27.3768H50.4102H50.4007Z" fill="white"/>
<path d="M97.2028 8.63892C99.1405 8.63892 100.496 9.9753 100.496 11.9321C100.496 13.889 99.1405 15.2063 97.2028 15.2063C95.265 15.2063 93.9286 13.8699 93.9286 11.9321C93.9286 9.99439 95.265 8.63892 97.2028 8.63892ZM94.3773 40.1871V18.7954H100.105V40.1871H94.3773Z" fill="white"/>
<path d="M104.257 40.187V18.7953H109.688L109.803 21.2676C110.92 19.7785 113.211 18.3467 116.399 18.3467C121.344 18.3467 124.847 21.6017 124.847 26.7468V40.1775H119.148V28.2168C119.148 25.2577 117.229 23.654 114.719 23.654C112.208 23.654 109.975 25.2577 109.975 28.2168V40.1775H104.276L104.257 40.187Z" fill="white"/>
<path d="M137.886 18.3467C141.275 18.3467 143.432 19.4826 144.835 21.0672L144.95 18.7953H150.563V40.187H144.95L144.835 37.9151C143.413 39.5665 141.027 40.6356 137.886 40.6356C131.825 40.6356 127.529 35.9392 127.529 29.4768C127.529 23.0145 131.825 18.3562 137.886 18.3562V18.3467ZM133.276 29.4387C133.276 32.8273 135.662 35.5001 139.07 35.5001C142.478 35.5001 144.883 32.8273 144.883 29.4387C144.883 26.05 142.43 23.4727 139.07 23.4727C135.71 23.4727 133.276 25.9927 133.276 29.4387Z" fill="white"/>
<path d="M53.3026 42.3922C63.44 37.963 69.6924 19.9505 68.8619 9.5076C68.7855 8.65804 68.6805 7.83712 68.4705 7.13074C68.1842 6.19528 67.9455 5.55572 67.3155 5.15481C67.1532 5.05935 66.8669 5.01162 66.6473 5.04026C66.4087 5.09753 66.2751 5.20253 66.0078 5.44117C65.0532 6.41482 64.4137 8.11394 64.0223 9.54578C63.5546 11.2353 63.2968 13.0586 63.1346 14.8913C62.705 20.3418 63.1727 26.0501 65.1009 31.1761C66.7046 35.4239 69.7687 39.3662 74.5702 39.6526C78.207 40.0821 80.6507 36.4357 82.2066 33.4861C84.6217 28.637 85.9008 22.9955 85.9103 17.5927C85.9103 16.0654 85.7767 14.2136 85.204 12.8867C84.9558 12.3617 84.7076 11.8654 84.1444 11.8654C83.8867 11.9131 83.7339 12.0945 83.4858 12.3808C82.8271 13.2495 82.4644 14.309 82.1589 15.4545C81.7389 17.1059 81.5385 18.9005 81.443 20.7141C81.1948 26.1169 82.178 31.7393 84.6885 36.5312C86.3017 39.5762 88.6404 42.1631 91.7427 43.6522C93.2413 44.3681 94.8832 44.8072 96.5919 44.9981L96.1528 50C93.9191 49.8377 91.6663 49.3032 89.5663 48.3486C81.2521 44.6163 77.2048 35.4048 76.2025 26.8328C75.7156 22.5278 75.7729 18.2323 77.0807 13.994C77.8634 11.5885 79.0471 9.02077 81.3857 7.60802C83.6671 6.21437 86.8554 6.82528 88.5831 8.82031C89.9577 10.3094 90.6354 12.3331 90.9886 14.1372C92.6973 22.9764 88.2013 38.9748 79.8871 43.509C78.6271 44.1963 77.0902 44.664 75.5725 44.6927C75.1238 44.6927 74.6656 44.6926 74.217 44.664C71.2292 44.4922 68.2701 43.3181 65.9887 41.3994C58.6768 35.2521 56.8536 23.3964 57.7222 14.3758C58.2281 10.1472 59.3163 4.93526 62.5236 1.77567C64.3468 -0.00935931 67.0482 -0.515276 69.4251 0.563376C71.4965 1.4893 72.7947 3.48433 73.482 5.49845C74.5988 8.7344 74.5224 12.1899 74.1693 15.4354C73.1479 23.7687 70.2365 31.8729 65.3014 38.7076C62.6859 42.2299 59.364 45.399 55.1353 47.0504L53.274 42.3922H53.3026Z" fill="#FFC844"/>
<path d="M159.442 22.5025H158.415V21.5485H159.46V20.9579C159.46 19.6972 160.243 18.8909 161.572 18.8909C162.055 18.8909 162.378 19.0385 162.475 19.0896L162.356 20.0209C162.202 19.9528 161.907 19.879 161.623 19.879C160.891 19.879 160.55 20.231 160.55 21.0204V21.5485H162.157V22.5025H160.567V27.0001H159.442V22.5025Z" fill="white"/>
<path d="M164.321 27.0001H163.19V21.5485H164.321V22.2924C164.627 21.6962 165.144 21.4349 165.74 21.4349C166.166 21.4349 166.49 21.5712 166.49 21.5712L166.371 22.6047C166.308 22.582 166.064 22.4798 165.706 22.4798C165.104 22.4798 164.321 22.7978 164.321 24.0301V27.0001Z" fill="white"/>
<path d="M169.84 27.1136C168.182 27.1136 166.944 25.87 166.944 24.2743C166.944 22.6786 168.182 21.4349 169.84 21.4349C171.498 21.4349 172.736 22.6786 172.736 24.2743C172.736 25.87 171.498 27.1136 169.84 27.1136ZM168.068 24.2743C168.068 25.2794 168.812 26.0574 169.84 26.0574C170.868 26.0574 171.612 25.2794 171.612 24.2743C171.612 23.2692 170.868 22.4912 169.84 22.4912C168.812 22.4912 168.068 23.2692 168.068 24.2743Z" fill="white"/>
<path d="M174.059 27.0001V21.5485H175.19V22.2356C175.366 21.9574 175.882 21.4349 176.842 21.4349C177.779 21.4349 178.438 21.8211 178.784 22.4514C179.114 21.9176 179.795 21.4349 180.732 21.4349C182.186 21.4349 182.969 22.3662 182.969 23.6894V27.0001H181.839V23.9279C181.839 23.025 181.357 22.5025 180.556 22.5025C179.761 22.5025 179.108 23.0023 179.079 23.8597V27.0001H177.949V23.9279C177.949 23.025 177.467 22.5025 176.666 22.5025C175.854 22.5025 175.19 23.025 175.19 23.9279V27.0001H174.059Z" fill="white"/>
<path d="M187.62 22.5025H186.649V21.5485H187.637V19.7995H188.733V21.5485H190.465V22.5025H188.745V25.2283C188.745 25.8075 189.08 26.0972 189.636 26.0972C189.897 26.0972 190.255 26.0233 190.522 25.9098L190.67 26.8751C190.397 27.0171 189.914 27.1136 189.477 27.1136C188.336 27.1136 187.62 26.4719 187.62 25.3646V22.5025Z" fill="white"/>
<path d="M192.856 27.0001H191.732V19.0044H192.862V22.2356C193.043 21.9574 193.56 21.4349 194.537 21.4349C196.008 21.4349 196.797 22.3662 196.797 23.6894V27.0001H195.673V23.9279C195.673 23.025 195.179 22.5025 194.361 22.5025C193.532 22.5025 192.856 23.025 192.856 23.9279V27.0001Z" fill="white"/>
<path d="M198.058 24.28C198.058 22.6559 199.222 21.4349 200.874 21.4349C202.464 21.4349 203.498 22.6161 203.498 24.0755C203.498 24.2459 203.487 24.4219 203.452 24.598H199.222C199.273 25.4157 199.971 26.0574 200.914 26.0574C201.596 26.0574 202.141 25.7678 202.55 25.1261L203.379 25.728C202.873 26.6366 201.879 27.1136 200.914 27.1136C199.267 27.1136 198.058 25.8984 198.058 24.28ZM199.25 23.7575H202.357C202.288 22.9909 201.647 22.4514 200.863 22.4514C200.028 22.4514 199.392 22.9909 199.25 23.7575Z" fill="white"/>
<path d="M208.631 27.0001H207.507V21.5485H208.637V22.2356C208.819 21.9574 209.336 21.4349 210.312 21.4349C211.812 21.4349 212.601 22.3662 212.601 23.6894V27.0001H211.477V23.9279C211.477 23.025 210.982 22.5025 210.136 22.5025C209.307 22.5025 208.631 23.025 208.631 23.9279V27.0001Z" fill="white"/>
<path d="M214.18 21.5485H215.304V24.6207C215.304 25.5236 215.798 26.046 216.633 26.046C217.49 26.046 218.166 25.5236 218.166 24.6207V21.5485H219.29V27.0001H218.16V26.3129C217.979 26.5912 217.462 27.1136 216.457 27.1136C214.969 27.1136 214.18 26.1823 214.18 24.8592V21.5485Z" fill="white"/>
<path d="M221.352 22.5025H220.381V21.5485H221.369V19.7995H222.465V21.5485H224.197V22.5025H222.476V25.2283C222.476 25.8075 222.811 26.0972 223.368 26.0972C223.629 26.0972 223.987 26.0233 224.254 25.9098L224.401 26.8751C224.129 27.0171 223.646 27.1136 223.209 27.1136C222.067 27.1136 221.352 26.4719 221.352 25.3646V22.5025Z" fill="white"/>
<path d="M226.593 27.0001H225.463V21.5485H226.593V22.2924C226.9 21.6962 227.417 21.4349 228.013 21.4349C228.439 21.4349 228.763 21.5712 228.763 21.5712L228.643 22.6047C228.581 22.582 228.337 22.4798 227.979 22.4798C227.377 22.4798 226.593 22.7978 226.593 24.0301V27.0001Z" fill="white"/>
<path d="M229.705 19.72C229.705 19.3111 229.989 19.0272 230.398 19.0272C230.807 19.0272 231.096 19.3111 231.096 19.72C231.096 20.1288 230.807 20.4128 230.398 20.4128C229.989 20.4128 229.705 20.1288 229.705 19.72ZM230.96 27.0001H229.836V21.5485H230.96V27.0001Z" fill="white"/>
<path d="M233.016 22.5025H232.045V21.5485H233.033V19.7995H234.129V21.5485H235.861V22.5025H234.14V25.2283C234.14 25.8075 234.475 26.0972 235.032 26.0972C235.293 26.0972 235.651 26.0233 235.918 25.9098L236.065 26.8751C235.793 27.0171 235.31 27.1136 234.873 27.1136C233.731 27.1136 233.016 26.4719 233.016 25.3646V22.5025Z" fill="white"/>
<path d="M236.997 19.72C236.997 19.3111 237.281 19.0272 237.689 19.0272C238.098 19.0272 238.388 19.3111 238.388 19.72C238.388 20.1288 238.098 20.4128 237.689 20.4128C237.281 20.4128 236.997 20.1288 236.997 19.72ZM238.252 27.0001H237.127V21.5485H238.252V27.0001Z" fill="white"/>
<path d="M242.471 27.1136C240.813 27.1136 239.575 25.87 239.575 24.2743C239.575 22.6786 240.813 21.4349 242.471 21.4349C244.129 21.4349 245.367 22.6786 245.367 24.2743C245.367 25.87 244.129 27.1136 242.471 27.1136ZM240.699 24.2743C240.699 25.2794 241.443 26.0574 242.471 26.0574C243.499 26.0574 244.243 25.2794 244.243 24.2743C244.243 23.2692 243.499 22.4912 242.471 22.4912C241.443 22.4912 240.699 23.2692 240.699 24.2743Z" fill="white"/>
<path d="M247.815 27.0001H246.69V21.5485H247.82V22.2356C248.002 21.9574 248.519 21.4349 249.495 21.4349C250.995 21.4349 251.784 22.3662 251.784 23.6894V27.0001H250.66V23.9279C250.66 23.025 250.166 22.5025 249.319 22.5025C248.49 22.5025 247.815 23.025 247.815 23.9279V27.0001Z" fill="white"/>
<path d="M253.073 25.4498C253.073 24.4276 254.05 23.7235 255.481 23.7235C256.134 23.7235 256.605 23.8597 256.855 23.979V23.6837C256.855 23.0023 256.304 22.4912 255.458 22.4912C254.782 22.4912 254.22 22.8773 253.896 23.2464L253.187 22.5423C253.607 22.0085 254.481 21.4349 255.475 21.4349C257.008 21.4349 257.979 22.264 257.979 23.5872V27.0001H256.878V26.2959C256.543 26.807 255.912 27.1136 255.18 27.1136C253.999 27.1136 253.073 26.5174 253.073 25.4498ZM254.209 25.41C254.209 25.9041 254.703 26.1937 255.345 26.1937C256.23 26.1937 256.855 25.5861 256.855 24.8422C256.622 24.7229 256.1 24.5809 255.509 24.5809C254.799 24.5809 254.209 24.8194 254.209 25.41Z" fill="white"/>
<path d="M260.762 19.0044V27.0001H259.638V19.0044H260.762Z" fill="white"/>
<path d="M158.636 37.5961C158.636 35.972 159.8 34.7511 161.453 34.7511C163.043 34.7511 164.076 35.9323 164.076 37.3917C164.076 37.5621 164.065 37.7381 164.031 37.9141H159.8C159.851 38.7319 160.55 39.3736 161.493 39.3736C162.174 39.3736 162.719 39.084 163.128 38.4423L163.957 39.0442C163.452 39.9528 162.458 40.4298 161.493 40.4298C159.846 40.4298 158.636 39.2146 158.636 37.5961ZM159.829 37.0737H162.935C162.867 36.3071 162.225 35.7676 161.441 35.7676C160.607 35.7676 159.971 36.3071 159.829 37.0737Z" fill="white"/>
<path d="M164.491 40.3162L166.547 37.5337L164.536 34.8647H165.831L167.245 36.7841L168.659 34.8647H169.954L167.944 37.5337L169.999 40.3162H168.704L167.245 38.2776L165.786 40.3162H164.491Z" fill="white"/>
<path d="M171.004 42.5877V34.8647H172.129V35.6086C172.532 35.0918 173.145 34.7511 174.071 34.7511C175.621 34.7511 176.808 35.9436 176.808 37.6188C176.808 39.2941 175.621 40.4298 174.071 40.4298C173.145 40.4298 172.532 40.0891 172.129 39.5723V42.5877H171.004ZM172.134 37.6188C172.134 38.624 172.89 39.419 173.935 39.419C174.985 39.419 175.684 38.624 175.684 37.6188C175.684 36.6137 174.985 35.7619 173.935 35.7619C172.884 35.7619 172.134 36.6137 172.134 37.6188Z" fill="white"/>
<path d="M177.751 37.5961C177.751 35.972 178.915 34.7511 180.567 34.7511C182.157 34.7511 183.191 35.9323 183.191 37.3917C183.191 37.5621 183.179 37.7381 183.145 37.9141H178.915C178.966 38.7319 179.664 39.3736 180.607 39.3736C181.288 39.3736 181.834 39.084 182.243 38.4423L183.072 39.0442C182.566 39.9528 181.572 40.4298 180.607 40.4298C178.96 40.4298 177.751 39.2146 177.751 37.5961ZM178.943 37.0737H182.049C181.981 36.3071 181.34 35.7676 180.556 35.7676C179.721 35.7676 179.085 36.3071 178.943 37.0737Z" fill="white"/>
<path d="M185.661 40.3162H184.531V34.8647H185.661V35.6086C185.968 35.0123 186.485 34.7511 187.081 34.7511C187.507 34.7511 187.83 34.8874 187.83 34.8874L187.711 35.9209C187.649 35.8982 187.404 35.796 187.047 35.796C186.445 35.796 185.661 36.114 185.661 37.3463V40.3162Z" fill="white"/>
<path d="M189.233 35.8187H188.262V34.8647H189.25V33.1156H190.346V34.8647H192.078V35.8187H190.357V38.5445C190.357 39.1237 190.692 39.4133 191.249 39.4133C191.51 39.4133 191.868 39.3395 192.135 39.2259L192.282 40.1913C192.01 40.3333 191.527 40.4298 191.09 40.4298C189.949 40.4298 189.233 39.7881 189.233 38.6808V35.8187Z" fill="white"/>
<path d="M192.924 39.1691L193.759 38.4934C194.066 39.0272 194.588 39.3963 195.281 39.3963C195.866 39.3963 196.303 39.1635 196.303 38.7943C196.303 38.3911 195.968 38.2662 195.167 38.0845C193.997 37.8233 193.163 37.4542 193.163 36.3752C193.163 35.3871 194.066 34.7511 195.179 34.7511C196.195 34.7511 196.973 35.2792 197.337 35.8755L196.581 36.5229C196.286 36.1026 195.82 35.7789 195.179 35.7789C194.639 35.7789 194.276 36.0061 194.276 36.3582C194.276 36.7727 194.679 36.8863 195.48 37.0794C196.666 37.369 197.439 37.7551 197.439 38.7943C197.439 39.7881 196.439 40.4298 195.281 40.4298C194.219 40.4298 193.344 39.9414 192.924 39.1691Z" fill="white"/>
<path d="M201.113 38.7659C201.113 37.7438 202.09 37.0396 203.521 37.0396C204.174 37.0396 204.645 37.1759 204.895 37.2952V36.9999C204.895 36.3184 204.344 35.8073 203.498 35.8073C202.822 35.8073 202.26 36.1935 201.936 36.5626L201.226 35.8584C201.647 35.3246 202.521 34.7511 203.515 34.7511C205.048 34.7511 206.019 35.5802 206.019 36.9033V40.3162H204.918V39.6121C204.583 40.1232 203.952 40.4298 203.22 40.4298C202.039 40.4298 201.113 39.8335 201.113 38.7659ZM202.249 38.7262C202.249 39.2202 202.743 39.5099 203.384 39.5099C204.27 39.5099 204.895 38.9022 204.895 38.1583C204.662 38.0391 204.14 37.8971 203.549 37.8971C202.839 37.8971 202.249 38.1356 202.249 38.7262Z" fill="white"/>
<path d="M207.939 35.8187H206.968V34.8647H207.956V33.1156H209.052V34.8647H210.784V35.8187H209.063V38.5445C209.063 39.1237 209.398 39.4133 209.955 39.4133C210.216 39.4133 210.574 39.3395 210.84 39.2259L210.988 40.1913C210.716 40.3333 210.233 40.4298 209.796 40.4298C208.654 40.4298 207.939 39.7881 207.939 38.6808V35.8187Z" fill="white"/>
<path d="M216.281 40.3162H214.492V34.8647H216.133L216.19 35.4382C216.576 34.9498 217.235 34.7511 217.876 34.7511C218.904 34.7511 219.892 35.4723 219.892 36.7727V40.3162H218.104V37.2838C218.104 36.6762 217.621 36.3866 217.189 36.3866C216.741 36.3866 216.281 36.6762 216.281 37.2838V40.3162Z" fill="white"/>
<path d="M223.186 40.4866C222.158 40.4866 221.17 39.7654 221.17 38.465V34.8647H222.959V37.9539C222.959 38.5615 223.442 38.8511 223.873 38.8511C224.322 38.8511 224.782 38.5615 224.782 37.9539V34.8647H226.571V40.3162H224.929L224.873 39.7995C224.486 40.2878 223.828 40.4866 223.186 40.4866Z" fill="white"/>
<path d="M227.508 36.3241V34.8647H228.376V33.1156H230.108V34.8647H231.761V36.3241H230.165V38.0845C230.165 38.6751 230.5 38.8568 230.972 38.8568C231.233 38.8568 231.579 38.7773 231.852 38.6694L231.977 40.1232C231.625 40.3049 231.04 40.4298 230.529 40.4298C229.279 40.4298 228.376 39.8279 228.376 38.3741V36.3241H227.508Z" fill="white"/>
<path d="M234.674 40.3162H232.885V34.8647H234.572L234.629 35.6086C234.884 35.0691 235.424 34.7511 236.054 34.7511C236.27 34.7511 236.491 34.7908 236.718 34.8647L236.61 36.4263C236.383 36.3468 236.151 36.3071 235.923 36.3071C235.248 36.3071 234.674 36.6762 234.674 37.6927V40.3162Z" fill="white"/>
<path d="M237.519 33.1894C237.519 32.6102 237.917 32.207 238.496 32.207C239.075 32.207 239.484 32.6045 239.484 33.1894C239.484 33.7687 239.075 34.1662 238.496 34.1662C237.922 34.1662 237.519 33.7687 237.519 33.1894ZM237.633 34.8647H239.421V40.3162H237.633V34.8647Z" fill="white"/>
<path d="M240.574 39.2827L241.665 38.3003C242.051 38.7603 242.533 39.0385 243.09 39.0385C243.397 39.0385 243.68 38.9533 243.68 38.7035C243.68 38.4593 243.345 38.4366 242.505 38.2265C241.517 37.9766 240.733 37.5166 240.733 36.5172C240.733 35.5007 241.63 34.7511 242.982 34.7511C244.089 34.7511 244.839 35.3303 245.202 35.8187L244.152 36.7102C243.947 36.4604 243.539 36.1367 242.965 36.1367C242.545 36.1367 242.318 36.2787 242.318 36.4945C242.318 36.7102 242.721 36.8125 243.385 36.9715C244.441 37.2213 245.333 37.6756 245.333 38.7092C245.333 39.7029 244.362 40.4298 243.079 40.4298C241.761 40.4298 241.023 39.9017 240.574 39.2827Z" fill="white"/>
<path d="M247.911 40.3219L245.719 34.8647H247.712L248.865 38.5104L249.99 34.8647H251.988L249.461 41.1169C249.024 42.2016 248.15 42.7013 247.145 42.7013C246.753 42.7013 246.349 42.6048 245.969 42.4174L246.213 41.009C246.429 41.1056 246.645 41.1567 246.849 41.1567C247.338 41.1567 247.752 40.8784 247.911 40.3219Z" fill="white"/>
<path d="M252.306 39.2827L253.397 38.3003C253.783 38.7603 254.266 39.0385 254.822 39.0385C255.129 39.0385 255.413 38.9533 255.413 38.7035C255.413 38.4593 255.078 38.4366 254.237 38.2265C253.249 37.9766 252.465 37.5166 252.465 36.5172C252.465 35.5007 253.363 34.7511 254.714 34.7511C255.822 34.7511 256.571 35.3303 256.935 35.8187L255.884 36.7102C255.68 36.4604 255.271 36.1367 254.697 36.1367C254.277 36.1367 254.05 36.2787 254.05 36.4945C254.05 36.7102 254.453 36.8125 255.117 36.9715C256.174 37.2213 257.065 37.6756 257.065 38.7092C257.065 39.7029 256.094 40.4298 254.811 40.4298C253.493 40.4298 252.755 39.9017 252.306 39.2827Z" fill="white"/>
<path d="M257.582 36.3241V34.8647H258.451V33.1156H260.183V34.8647H261.835V36.3241H260.24V38.0845C260.24 38.6751 260.575 38.8568 261.046 38.8568C261.307 38.8568 261.654 38.7773 261.926 38.6694L262.051 40.1232C261.699 40.3049 261.114 40.4298 260.603 40.4298C259.354 40.4298 258.451 39.8279 258.451 38.3741V36.3241H257.582Z" fill="white"/>
<path d="M262.426 37.5904C262.426 35.9323 263.539 34.7511 265.18 34.7511C266.52 34.7511 267.906 35.5915 267.906 37.4144C267.906 37.6132 267.889 37.829 267.855 38.0504H264.175C264.249 38.641 264.817 38.9193 265.379 38.9193C265.867 38.9193 266.304 38.6126 266.6 38.2435L267.736 39.243C267.321 39.9017 266.463 40.4298 265.356 40.4298C263.624 40.4298 262.426 39.2486 262.426 37.5904ZM265.231 36.1594C264.607 36.1594 264.237 36.5512 264.175 36.9999H266.253C266.236 36.574 265.805 36.1594 265.231 36.1594Z" fill="white"/>
<path d="M269.093 40.3162V34.8647H270.734L270.791 35.4382C271.177 34.9498 271.836 34.7511 272.477 34.7511C273.204 34.7511 273.903 35.0577 274.192 35.6597C274.635 35.035 275.339 34.7511 276.026 34.7511C277.077 34.7511 278.071 35.4439 278.071 36.7727V40.3162H276.282V37.2838C276.282 36.6762 275.839 36.3866 275.39 36.3866C274.942 36.3866 274.47 36.6762 274.47 37.2838V40.3162H272.682V37.2838C272.682 36.6762 272.222 36.3866 271.79 36.3866C271.341 36.3866 270.882 36.6762 270.882 37.2838V40.3162H269.093Z" fill="white"/>
</svg>
