<svg width="117" height="39" viewBox="0 0 117 39" fill="none" xmlns="http://www.w3.org/2000/svg">
<path d="M0 14.6057H4.58416L7.85539 26.704L11.4233 14.8653H15.3696L18.9152 26.704L22.2013 14.6057H26.7855L21.8897 31.2289H16.371L13.3964 21.1556L10.4219 31.2289H4.89571L0 14.6057Z" fill="white"/>
<path d="M26.7038 22.8983C26.7187 17.8245 30.3237 14.2566 35.2565 14.2566C39.8258 14.2566 43.3047 17.3201 43.3047 22.3568C43.3047 22.965 43.2528 23.5881 43.149 24.2409H31.1322C31.4586 26.1992 33.454 27.564 35.5606 27.564C37.2073 27.564 38.6241 26.8 39.6997 25.2274L42.8522 27.5789C41.2945 30.1751 38.3868 31.577 35.4568 31.577C30.1234 31.577 26.6964 27.7346 26.6964 22.8834L26.7038 22.8983ZM39.1656 21.2738C38.9431 19.4193 37.415 18.0026 35.3084 18.0026C33.2018 18.0026 31.4512 19.3897 31.2064 21.2738H39.173H39.1656Z" fill="white"/>
<path d="M75.5348 6.71313C77.0406 6.71313 78.0939 7.75162 78.0939 9.27226C78.0939 10.7929 77.0406 11.8165 75.5348 11.8165C74.029 11.8165 72.9905 10.7781 72.9905 9.27226C72.9905 7.76645 74.029 6.71313 75.5348 6.71313ZM73.3392 31.2288V14.6056H77.7898V31.2288H73.3392Z" fill="white"/>
<path d="M81.0165 31.2284V14.6052H85.2372L85.3262 16.5264C86.1941 15.3693 87.9744 14.2566 90.4519 14.2566C94.2943 14.2566 97.0166 16.786 97.0166 20.7842V31.221H92.5882V21.9265C92.5882 19.627 91.0972 18.3809 89.1464 18.3809C87.1955 18.3809 85.4598 19.627 85.4598 21.9265V31.221H81.0314L81.0165 31.2284Z" fill="white"/>
<path d="M107.149 14.2566C109.783 14.2566 111.459 15.1393 112.549 16.3706L112.638 14.6052H117V31.2284H112.638L112.549 29.463C111.444 30.7462 109.59 31.577 107.149 31.577C102.439 31.577 99.101 27.9275 99.101 22.9057C99.101 17.8839 102.439 14.264 107.149 14.264V14.2566ZM103.566 22.876C103.566 25.5093 105.421 27.5863 108.069 27.5863C110.717 27.5863 112.586 25.5093 112.586 22.876C112.586 20.2427 110.68 18.2399 108.069 18.2399C105.458 18.2399 103.566 20.1982 103.566 22.876Z" fill="white"/>
<path d="M41.4208 32.9423C49.2984 29.5005 54.157 15.5032 53.5117 7.38821C53.4523 6.72803 53.3707 6.09011 53.2075 5.5412C52.985 4.81426 52.7996 4.31727 52.31 4.00572C52.1839 3.93155 51.9614 3.89446 51.7907 3.91671C51.6053 3.96122 51.5015 4.04281 51.2938 4.22826C50.552 4.98487 50.055 6.30522 49.7509 7.41788C49.3874 8.73082 49.1871 10.1476 49.061 11.5718C48.7272 15.8073 49.0907 20.2432 50.5891 24.2265C51.8353 27.5274 54.2164 30.5909 57.9475 30.8134C60.7736 31.1472 62.6726 28.3137 63.8817 26.0216C65.7584 22.2534 66.7523 17.8695 66.7597 13.671C66.7597 12.4842 66.6559 11.0452 66.2108 10.0141C66.018 9.60612 65.8251 9.2204 65.3875 9.2204C65.1872 9.25748 65.0685 9.39842 64.8756 9.62095C64.3638 10.296 64.0819 11.1193 63.8446 12.0095C63.5182 13.2927 63.3624 14.6873 63.2882 16.0966C63.0954 20.2951 63.8594 24.6641 65.8103 28.3878C67.0639 30.7541 68.8812 32.7643 71.292 33.9215C72.4566 34.4778 73.7324 34.819 75.0602 34.9674L74.719 38.8543C72.9832 38.7282 71.2326 38.3128 69.6007 37.571C63.1399 34.6707 59.9948 27.5125 59.2159 20.8514C58.8376 17.506 58.8821 14.168 59.8983 10.8746C60.5066 9.00528 61.4264 7.00991 63.2437 5.91208C65.0166 4.82909 67.4941 5.30383 68.8367 6.85414C69.9049 8.0113 70.4315 9.58387 70.706 10.9858C72.0338 17.8546 68.54 30.2868 62.0792 33.8102C61.1 34.3443 59.9058 34.7078 58.7263 34.73C58.3777 34.73 58.0216 34.73 57.673 34.7078C55.3513 34.5742 53.0518 33.6618 51.2789 32.1709C45.5969 27.3939 44.1802 18.181 44.8552 11.1713C45.2483 7.8852 46.0939 3.83512 48.5863 1.37984C50.0031 -0.00727298 52.1023 -0.400413 53.9493 0.437791C55.559 1.15731 56.5678 2.70762 57.1019 4.27276C57.9697 6.78738 57.9104 9.4726 57.6359 11.9946C56.8422 18.4703 54.5798 24.768 50.7449 30.0791C48.7124 32.8162 46.131 35.2789 42.845 36.5622L41.3985 32.9423H41.4208Z" fill="#FFC844"/>
</svg>
