<svg width="112" height="92" viewBox="0 0 112 92" fill="none" xmlns="http://www.w3.org/2000/svg">
<path d="M9.32143 91.3412C14.4414 64.6412 48.4814 27.7012 84.7614 26.3612" stroke="#1226AA" stroke-width="3" stroke-miterlimit="10"/>
<path d="M14.1914 77.3112C30.5714 85.8612 42.1314 74.5912 38.7514 69.5912C36.0414 65.5812 32.4514 68.2112 34.3714 71.8812C39.2714 81.2512 66.6214 68.8212 60.5714 60.9112C56.8414 56.0312 52.6814 60.0212 54.7314 63.0012C61.6914 73.1512 82.9814 58.8612 78.1414 50.6512C73.6814 43.0912 69.3414 48.6112 72.3814 53.1712C80.0414 64.6412 103.631 46.2712 94.9914 37.7812C88.5614 31.4612 85.6214 39.2512 90.2314 40.5612C97.1214 42.5112 108.571 32.5012 110.171 23.9512C111.511 16.8612 105.981 13.6712 102.771 14.4812C94.8414 16.4812 98.6514 24.9512 104.501 20.9512C117.431 12.1012 80.9714 -5.83879 79.8014 8.13121C78.9814 17.9812 86.8114 16.4512 87.1414 8.69121C87.6314 -2.59879 53.4314 1.29121 56.0514 13.6912C57.6514 21.2712 63.5814 18.7012 61.8214 12.9212C58.4314 1.74122 19.4314 13.9212 29.1114 25.5512C33.1614 30.4112 39.3114 26.5512 35.9014 22.6612C28.1114 13.7612 -0.818568 39.1812 11.5914 47.8612C19.4014 53.3212 20.7614 43.4612 13.9814 40.8512C3.88143 36.9712 -4.15857 58.8812 7.53143 75.0212" stroke="#1226AA" stroke-width="3" stroke-miterlimit="10"/>
<path d="M35.1814 49.5112C35.1814 49.5112 32.2414 39.0512 36.0814 33.8812" stroke="#1226AA" stroke-width="3" stroke-miterlimit="10"/>
<path d="M47.0314 39.9613C47.0314 39.9613 52.5914 39.5513 61.6114 42.5513" stroke="#1226AA" stroke-width="3" stroke-miterlimit="10"/>
<path d="M63.5814 31.0312C63.5814 31.0312 63.2814 25.6912 68.6214 21.3612" stroke="#1226AA" stroke-width="3" stroke-miterlimit="10"/>
</svg>
